<svg viewBox="0 0 424 424" fill="none" xmlns="http://www.w3.org/2000/svg">
  <style>
    #g-aroundDots {
      transform-origin: center;
      animation: anim-rolling 7s infinite;
    }
    #g-innerFace {
      transform-origin: center;
      animation: anim-swing 2s alternate infinite linear;
    }

    @keyframes anim-swing {
      from {
        transform: rotate(-30deg);
      }
      to {
        transform: rotate(30deg);
      }
    }

    @keyframes anim-rolling {
      0% {
        transform: rotate(0);
      }
      100% {
        transform: rotate(360deg);
      }
    }
  </style>
  <g id="g-innerFace" class="swinging">
    <path d="M265.917 165.157C272.944 165.157 278.657 159.44 278.657 152.413C278.657 145.386 272.943 139.666 265.917 139.666C258.889 139.666 253.166 145.386 253.166 152.413C253.166 159.441 258.889 165.157 265.917 165.157Z" fill="white" />
    <path d="M198.116 225.42C199.217 232.814 202.738 239.677 208.572 245.818C213.472 250.959 220.865 258.733 228.396 260.794C229.288 261.039 230.157 261.161 230.983 261.161C233.624 261.161 235.832 259.863 236.892 257.688C238.098 255.217 237.611 252.108 235.633 249.584C233.896 247.34 230.811 245.61 227.824 243.938C226.323 243.091 224.903 242.297 223.796 241.498C218.962 238.052 212.469 232.546 211.929 224.567C211.32 215.054 218.32 206.285 221.361 202.957C224.912 199.066 229.39 195.471 234.675 192.251C235.09 191.995 235.576 191.726 236.096 191.425C239.9 189.265 245.65 185.997 244.209 180.948C243.474 178.382 241.747 177.033 239.229 177.033C235.507 177.033 229.841 180.086 222.375 186.122C212.322 194.224 195.493 207.791 198.116 225.42Z" fill="white" />
    <path d="M187.111 267.885C188.925 272.076 192.626 276.299 196.809 276.299C198.733 276.299 200.536 275.416 202.171 273.679C205.411 270.262 203.896 266.822 202.556 263.788C202.213 263.011 201.869 262.235 201.607 261.454C197.435 249.094 195.749 235.455 196.6 220.921C197.035 213.407 199.187 206.004 201.269 198.84C201.675 197.461 202.072 196.08 202.466 194.704C205.106 185.437 208.243 176.488 210.677 169.729L211.91 166.291C214.112 160.166 216.389 153.834 219.029 147.767C220.703 143.918 222.351 140.564 224.06 137.524C224.383 136.954 224.738 136.372 225.105 135.783C226.573 133.399 228.241 130.697 228.205 127.748C228.157 124.725 226.245 123 222.965 123C220.273 123 217 124.161 215.079 125.253C214.619 125.522 214.208 125.772 213.846 126.035C209.398 129.109 206.971 134.363 204.823 139L204.002 140.758C199.108 151.115 195.659 162.18 192.323 172.873C191.595 175.228 190.864 177.573 190.112 179.916C185.94 192.931 183.252 204.461 181.894 215.156C179.225 235.962 180.976 253.701 187.111 267.885Z" fill="white" />
    <path d="M307.676 223.239C306.095 223.239 304.883 225.187 303.459 227.735C303.164 228.261 302.917 228.714 302.729 228.976C298.754 234.479 294.335 240.002 287.997 241.825C283.411 243.162 279.744 242.341 277.106 239.367C271.821 233.411 271.737 220.863 272.514 214.394C272.788 212.046 273.194 209.629 273.582 207.292C274.199 203.632 274.829 199.848 275.011 196.123C275.214 191.636 275.414 186.999 273.96 182.541C272.797 178.978 269.47 176.272 265.063 175.296L264.71 175.222C263.777 175.013 262.365 174.699 261.106 174.699C260.079 174.699 259.321 174.902 258.763 175.338C256.522 177.158 257.594 180.088 258.376 182.231C258.572 182.771 258.757 183.275 258.859 183.695C261.24 193.788 259.861 204.219 258.101 214.905C255.68 229.705 251.697 248.667 242.313 264.004C236.67 273.24 229.825 283.58 219.924 289.395C214.034 292.826 207.544 295.264 202.564 295.915C201.069 296.111 199.527 296.209 197.981 296.209C189.943 296.209 182.178 293.578 176.694 289.001C160.202 275.206 159.516 253.236 160.575 241.365C160.974 236.908 161.476 232.581 162.055 228.499C165.045 208.063 170.854 192.192 180.343 178.539C181.283 177.192 182.262 175.469 181.552 174.108C180.874 172.808 179.075 172.625 177.249 172.625C176.739 172.625 176.193 172.646 175.608 172.668C174.996 172.697 174.408 172.706 173.844 172.718C170.819 172.769 168.205 172.808 166.029 175.682C162.282 180.626 160.438 185.934 158.492 191.547C158.181 192.451 157.859 193.363 157.537 194.28C156.612 196.858 155.738 199.484 154.864 202.119C151.764 211.411 148.559 221.016 143.114 229.144C140.374 233.233 135.743 238.654 129.268 241.274C127.723 241.897 125.992 242.238 124.398 242.238C122.835 242.238 120.612 241.915 118.902 240.355C118.479 239.973 118.111 239.022 117.786 238.183C117.21 236.691 116.556 234.999 114.981 234.999C114.056 234.999 113.143 235.619 112.027 236.998C110.527 238.87 109.634 242.662 109.369 244.419C108.092 253.538 110.145 259.589 115.31 261.917C120.812 264.406 127.624 263.239 135.156 258.527C140.572 255.137 144.641 250.444 147.736 246.182C147.584 250.882 147.831 256.014 148.485 261.762C149.798 273.3 154.494 294.247 171.207 304.816C175.674 307.634 181.215 309.769 186.028 310.525C189.322 311.05 192.841 311.324 196.191 311.324C198.734 311.324 201.165 311.169 203.418 310.865C218.498 308.782 232.743 300.373 243.534 287.2C253.822 274.655 260.712 261.687 264.081 248.563C264.872 253.908 266.558 259.619 270.368 263.277C271.768 264.626 273.573 265.318 275.724 265.318C280.874 265.318 287.021 261.272 290.226 258.867C296.241 254.38 301.612 247.803 305.763 239.85C305.829 239.729 311.603 227.718 309.565 224.296C309.171 223.633 308.514 223.253 307.676 223.239Z" fill="white" />
    <path d="M175.636 165.157C182.663 165.157 188.379 159.44 188.379 152.413C188.379 145.386 182.662 139.666 175.636 139.666C168.606 139.666 162.891 145.386 162.891 152.413C162.891 159.441 168.605 165.157 175.636 165.157Z" fill="white" />
  </g>
  <g id="g-aroundDots" class="rolling">
    <circle cx="212" cy="10" r="10" fill="white" />
    <circle cx="212" cy="413.352" r="10" fill="white" />
    <circle cx="10" cy="216.581" r="10" transform="rotate(-90 10 216.581)" fill="white" />
    <circle cx="413.352" cy="216.581" r="10" transform="rotate(-90 413.352 216.581)" fill="white" />
    <circle cx="39.076" cy="318.095" r="10" transform="rotate(-120 39.076 318.095)" fill="white" />
    <circle cx="387.828" cy="116.743" r="10" transform="rotate(-120 387.828 116.743)" fill="white" />
    <circle cx="114.453" cy="391.795" r="10" transform="rotate(-150 114.453 391.795)" fill="white" />
    <circle cx="315.805" cy="43.0429" r="10" transform="rotate(-150 315.805 43.0429)" fill="white" />
    <circle cx="110.486" cy="39.076" r="10" transform="rotate(-30 110.486 39.076)" fill="white" />
    <circle cx="311.838" cy="387.828" r="10" transform="rotate(-30 311.838 387.828)" fill="white" />
    <circle cx="36.7857" cy="114.453" r="10" transform="rotate(-60 36.7857 114.453)" fill="white" />
    <circle cx="385.538" cy="315.805" r="10" transform="rotate(-60 385.538 315.805)" fill="white" />
  </g>
  <circle id="shape-gauge" cx="213.799" cy="215.099" r="153.729" stroke="white" stroke-width="16" />
</svg>