<?xml version="1.0" encoding="utf-8"?>
<svg version="1.1" xmlns="http://www.w3.org/2000/svg" xmlns:xlink="http://www.w3.org/1999/xlink" x="0px" y="0px" width="700px" height="700px" viewBox="0 0 700 700" xml:space="preserve">
<g id="favicon">
	<circle fill="#AFCEC7" cx="350.538" cy="350" r="350"/>
	<g>
		<path fill="#FFFFFF" d="M469.937,250.699c15.559,0,28.21-12.657,28.21-28.217s-12.651-28.223-28.21-28.223
			s-28.23,12.663-28.23,28.223S454.378,250.699,469.937,250.699z"/>
		<path fill="#FFFFFF" d="M319.819,384.128c2.438,16.372,10.233,31.566,23.149,45.163c10.849,11.384,27.22,28.596,43.895,33.158
			c1.976,0.544,3.898,0.813,5.729,0.813c5.847,0,10.736-2.873,13.081-7.69c2.67-5.47,1.593-12.354-2.788-17.942
			c-3.846-4.969-10.676-8.8-17.29-12.501c-3.323-1.876-6.468-3.633-8.919-5.403c-10.702-7.631-25.079-19.82-26.273-37.486
			c-1.349-21.063,14.15-40.479,20.883-47.847c7.862-8.615,17.779-16.575,29.479-23.704c0.917-0.568,1.995-1.163,3.145-1.831
			c8.423-4.781,21.154-12.018,17.964-23.196c-1.626-5.682-5.451-8.668-11.027-8.668c-8.238,0-20.784,6.76-37.314,20.125
			C351.273,315.056,314.012,345.097,319.819,384.128z"/>
		<path fill="#FFFFFF" d="M295.453,478.149c4.018,9.28,12.21,18.63,21.472,18.63c4.262,0,8.252-1.955,11.872-5.802
			c7.175-7.563,3.82-15.183,0.854-21.899c-0.76-1.72-1.521-3.437-2.102-5.167c-9.236-27.366-12.969-57.564-11.086-89.745
			c0.965-16.638,5.729-33.027,10.34-48.89c0.898-3.054,1.777-6.111,2.649-9.158c5.846-20.519,12.79-40.332,18.182-55.297
			l2.728-7.612c4.876-13.562,9.917-27.582,15.764-41.014c3.707-8.521,7.354-15.949,11.139-22.68c0.715-1.263,1.5-2.551,2.313-3.854
			c3.249-5.278,6.943-11.263,6.864-17.791c-0.105-6.692-4.341-10.512-11.602-10.512c-5.96,0-13.207,2.57-17.463,4.988
			c-1.016,0.595-1.928,1.149-2.728,1.73c-9.851,6.807-15.222,18.439-19.979,28.707l-1.817,3.891
			c-10.835,22.934-18.473,47.431-25.858,71.107c-1.611,5.215-3.23,10.406-4.896,15.593c-9.236,28.818-15.188,54.347-18.195,78.025
			C277.992,407.469,281.87,446.746,295.453,478.149z"/>
		<path fill="#FFFFFF" d="M562.396,379.3c-3.501,0-6.184,4.313-9.335,9.955c-0.653,1.163-1.202,2.167-1.618,2.749
			c-8.801,12.183-18.585,24.412-32.617,28.447c-10.155,2.96-18.274,1.143-24.115-5.443c-11.699-13.187-11.885-40.969-10.167-55.292
			c0.608-5.198,1.507-10.55,2.365-15.724c1.367-8.105,2.762-16.484,3.165-24.729c0.448-9.936,0.892-20.203-2.326-30.074
			c-2.576-7.889-9.942-13.88-19.701-16.041l-0.779-0.164c-2.068-0.464-5.193-1.156-7.981-1.156c-2.272,0-3.951,0.447-5.186,1.414
			c-4.962,4.029-2.591,10.518-0.858,15.261c0.436,1.196,0.845,2.313,1.069,3.243c5.272,22.346,2.22,45.441-1.678,69.102
			c-5.358,32.769-14.179,74.753-34.956,108.711c-12.493,20.448-27.649,43.342-49.57,56.217
			c-13.042,7.598-27.412,12.996-38.438,14.438c-3.311,0.434-6.727,0.652-10.148,0.652c-17.799,0-34.989-5.826-47.132-15.961
			c-36.516-30.543-38.034-79.188-35.689-105.471c0.886-9.869,1.995-19.45,3.277-28.488c6.619-45.248,19.482-80.389,40.491-110.616
			c2.082-2.984,4.248-6.797,2.676-9.811c-1.5-2.88-5.482-3.283-9.526-3.283c-1.129,0-2.339,0.047-3.634,0.094
			c-1.354,0.064-2.656,0.085-3.904,0.111c-6.699,0.111-12.486,0.198-17.303,6.562c-8.298,10.947-12.381,22.699-16.688,35.127
			c-0.688,2.003-1.401,4.022-2.115,6.052c-2.048,5.708-3.983,11.521-5.919,17.356c-6.863,20.572-13.959,41.84-26.017,59.836
			c-6.065,9.052-16.318,21.056-30.655,26.855c-3.422,1.381-7.254,2.136-10.783,2.136c-3.461,0-8.383-0.715-12.169-4.169
			c-0.938-0.847-1.751-2.953-2.472-4.811c-1.274-3.303-2.721-7.049-6.209-7.049c-2.048,0-4.07,1.374-6.541,4.427
			c-3.323,4.144-5.299,12.54-5.887,16.431c-2.827,20.189,1.719,33.588,13.154,38.742c12.183,5.51,27.266,2.926,43.941-7.506
			c11.991-7.506,21.002-17.897,27.854-27.332c-0.337,10.405,0.211,21.769,1.659,34.494c2.906,25.547,13.305,71.926,50.309,95.327
			c9.892,6.238,22.159,10.967,32.815,12.639c7.294,1.163,15.084,1.771,22.503,1.771c5.629,0,11.013-0.343,16.001-1.018
			c33.391-4.61,64.931-23.229,88.82-52.396c22.78-27.775,38.035-56.488,45.494-85.545c1.751,11.833,5.483,24.479,13.92,32.577
			c3.1,2.987,7.096,4.52,11.86,4.52c11.401,0,25.013-8.958,32.108-14.283c13.318-9.936,25.211-24.497,34.4-42.105
			c0.146-0.27,12.93-26.862,8.417-34.439C565.707,380.17,564.253,379.331,562.396,379.3z"/>
		<path fill="#FFFFFF" d="M270.045,250.699c15.558,0,28.216-12.657,28.216-28.217s-12.658-28.223-28.216-28.223
			c-15.566,0-28.218,12.663-28.218,28.223S254.479,250.699,270.045,250.699z"/>
		<path fill="#FFFFFF" d="M351.056,66.861c156.717,0,284.214,127.496,284.214,284.213c0,156.719-127.497,284.215-284.214,284.215
			c-156.718,0-284.214-127.496-284.214-284.215C66.842,194.357,194.338,66.861,351.056,66.861 M351.056,46.564
			c-168.181,0-304.509,136.33-304.509,304.51s136.328,304.51,304.509,304.51s304.509-136.33,304.509-304.51
			S519.236,46.564,351.056,46.564L351.056,46.564z"/>
	</g>
</g>
</svg>
